<svg width="32" height="32" viewBox="0 0 32 32" fill="none" xmlns="http://www.w3.org/2000/svg">
<g clip-path="url(#clip0_152_8166)">
<path fill-rule="evenodd" clip-rule="evenodd" d="M25.7112 13.7878C26.3862 12.6424 27.7305 12.3997 28.8828 13.0787C30.035 13.7578 30.5552 15.1409 29.8257 16.3004C29.8257 16.3004 25.5004 24.2904 23.9141 25.8922C22.5272 27.6576 20.4407 29.0108 18.2605 29.5741C16.2662 30.0894 14.2456 29.7891 12.5501 28.8794C13.1612 29.0764 13.8173 29.1525 14.4394 29.088C15.4218 29.0991 19.2347 28.0312 19.2347 28.0312C19.8189 27.9082 20.0942 27.326 19.9576 26.7594C19.8209 26.1928 19.3374 25.8454 18.7741 25.9813L17.172 26.3677C16.7639 26.4662 16.452 26.2755 16.3879 25.943C16.3539 25.7353 16.6675 25.3117 16.8728 25.0605L19.8925 21.2592C20.1587 20.913 20.1192 20.4086 19.773 20.1424C19.4268 19.8761 18.9285 19.9481 18.6622 20.2943L16.1389 23.1943C16.0727 23.2602 15.9804 23.2325 16.052 23.1153L18.4221 18.8104C18.6485 18.4399 18.5346 17.9677 18.1642 17.7412C17.7937 17.5147 17.3215 17.6286 17.095 17.9991L14.4704 22.203C14.4346 22.2616 14.3948 22.2373 14.4306 22.1787L15.844 18.5168C16.0119 18.1105 15.8172 17.6435 15.4108 17.4756C15.0045 17.3078 14.5436 17.5349 14.3757 17.9412L12.5428 22.1201C12.4954 22.1976 12.4523 22.2258 12.4726 22.1031L12.98 19.5235C13.0778 19.1002 12.8074 18.6675 12.3841 18.5698C11.9608 18.472 11.5375 18.774 11.4398 19.1973L10.0479 24.5832C10.0421 24.5926 10.0379 24.6101 10.0336 24.6277C10.0294 24.6452 10.0251 24.6627 10.0194 24.6721C9.8199 25.5156 9.94336 26.3977 10.347 27.1427C10.0669 26.8285 9.80994 26.4905 9.57971 26.1308C9.57338 26.1062 9.55125 26.0712 9.52913 26.0363C9.50701 26.0013 9.48489 25.9663 9.47855 25.9418L2.82126 15.0508C2.27944 14.214 2.4572 13.0343 3.294 12.4925C4.13079 11.9507 5.27553 12.1956 5.81735 13.0324L9.26022 17.9862C9.42997 18.2156 9.45227 18.0993 9.40016 17.8977L5.43662 8.20615C5.03474 7.28087 5.39591 6.15842 6.32119 5.75654C7.24647 5.35466 8.32708 5.77897 8.72896 6.70425L12.5099 14.8789C12.5493 15.0315 12.6529 15.0048 12.6134 14.8522L9.87223 3.81569C9.62296 2.85098 10.1888 1.89077 11.1536 1.6415C12.1183 1.39223 13.0785 1.95812 13.3278 2.92283L16.6417 13.7008C16.7206 14.0061 16.9136 13.898 16.9106 13.6837L16.1573 4.89533C16.0116 3.90386 16.6883 2.96735 17.6797 2.82164C18.6712 2.67593 19.5659 3.41573 19.7116 4.4072L21.1585 15.4525C21.2449 16.1919 21.4427 17.385 21.8395 17.6604C22.49 18.0854 23.3021 17.8755 23.7912 17.0456L25.7112 13.7878Z" fill="black"/>
</g>
<defs>
<clipPath id="clip0_152_8166">
<rect width="32" height="32" fill="white"/>
</clipPath>
</defs>
</svg>
